<svg xmlns="http://www.w3.org/2000/svg" width="320" height="320" viewBox="0 0 320 320" fill="none">
<path fill-rule="evenodd" clip-rule="evenodd" d="M153.306 55.8512C153.41 55.7996 153.515 55.748 153.619 55.6965C153.481 55.7416 153.376 55.7931 153.306 55.8512ZM77.1852 96.3001C80.8262 100.076 84.1747 104.14 87.1979 108.433C83.4069 113.055 79.82 117.85 76.4521 122.81L76.4424 122.824L76.4422 122.824C75.5828 124.093 74.7394 125.339 73.928 126.632C70.2737 132.28 66.9077 138.126 63.8444 144.134C63.382 143.073 62.9048 142.023 62.4131 140.986C62.2037 140.524 61.9862 140.073 61.7446 139.644C56.6149 129.227 49.9953 120.119 42.3933 113.013C34.4772 105.61 25.5141 100.561 16.1565 98.0421C14.9977 97.8668 13.8558 97.6325 12.7145 97.3888C17.1616 86.9407 22.688 77.0625 29.1536 67.8942C40.3222 70.8822 50.9873 75.7278 60.5652 82.2524C66.5729 86.3328 72.1694 91.0665 77.1852 96.3001ZM74.098 295.008L74.098 230.298C74.2585 226.501 74.4767 222.588 74.7102 218.813C75.2252 214.271 75.9455 209.745 76.6632 205.235C76.8222 204.236 76.981 203.238 77.1375 202.241C81.4841 180.291 90.274 159.179 102.838 140.736C103.822 139.268 104.83 137.833 105.886 136.414C114.942 123.947 125.7 112.754 137.78 103.222C141.82 100.028 146.021 97.0206 150.344 94.2143C156.537 90.158 163.044 86.5292 169.746 83.36C179.955 78.4812 190.664 74.6669 201.664 71.9493C205.163 71.0864 208.72 70.3364 212.276 69.6913L220.558 68.4414L224.711 67.8446L228.864 67.5785L237.218 67.1672L241.371 66.9979L241.895 66.9737H290.192C297.264 76.8528 303.239 87.5702 307.94 98.9482H244.508C244.256 98.9482 244.007 98.9467 243.76 98.9451H243.76H243.76H243.759H243.759C243.02 98.9406 242.288 98.9361 241.46 98.9724L238.097 99.1175L231.324 99.4562L227.937 99.6497L224.574 100.158L217.873 101.19C212.397 102.15 206.97 103.464 201.64 105.101C190.422 108.585 179.665 113.512 169.722 119.754C169.052 120.165 168.399 120.568 167.754 121.004C156.513 128.302 146.376 137.261 137.756 147.518C134.732 151.099 131.901 154.824 129.28 158.687C119.095 173.63 111.991 190.702 108.483 208.451C108.289 209.743 108.087 211.036 107.886 212.329C107.39 215.506 106.893 218.686 106.515 221.878L106.472 222.709C106.252 226.931 106.029 231.206 105.87 235.353V310.612C94.6446 306.577 84.0007 301.322 74.098 295.008ZM42.2322 229.24V194.39L42.1114 192.982C42.0389 192.069 42.0147 191.112 42.0147 190.199V188.791L41.7973 187.449C41.6523 186.569 41.5557 185.678 41.4833 184.765C40.5733 177.659 38.6325 170.905 35.7253 164.745C32.8263 158.618 28.9367 153.184 24.5236 149.016C20.0623 144.891 15.1257 142.141 9.96376 140.722C8.98263 140.674 8.05111 140.441 7.11885 140.207C6.75029 140.114 6.38161 140.022 6.0097 139.941C5.31714 139.974 4.61653 139.974 3.94813 139.908L2.91737 139.776L2.41002 139.71L2.16844 139.644H1.28273C0.436274 146.31 0 153.104 0 160C0 201.655 15.9177 239.591 42.0022 268.059V235.336L42.1715 230.627L42.2322 229.24ZM81.6634 20.4562C70.9729 26.4705 61.0433 33.6778 52.0551 41.8974C61.347 45.5539 70.235 50.2338 78.4755 55.8505C82.3382 58.4714 86.0638 61.3019 89.6443 64.3259C97.0324 70.5349 103.747 77.5305 109.652 85.1589C116.961 78.7096 124.746 72.793 132.917 67.4737C133.683 66.972 134.452 66.4813 135.224 65.9964C134.8 65.4448 134.372 64.8962 133.941 64.3504C124.409 52.2704 113.216 41.5128 100.749 32.4568C99.3298 31.4004 97.8943 30.3924 96.4266 29.4086C91.6725 26.1699 86.7409 23.1819 81.6634 20.4562ZM118.01 5.56676C131.391 1.93696 145.469 0 160 0C197.808 0 232.552 13.1133 259.934 35.0398H242.315L241.307 35.064L236.355 35.2576L226.437 35.7656L221.493 36.1043L216.566 36.7736C213.276 37.2332 209.986 37.7413 206.696 38.2896C205.018 38.5799 203.357 38.9106 201.68 39.2493C190.801 41.483 180.116 44.6119 169.762 48.6198C167.78 49.3858 165.811 50.1833 163.856 51.0118C159.147 44.5306 154.05 38.3317 148.601 32.4649C139.351 22.5019 129.11 13.4767 118.01 5.56676ZM160 320C163.267 320 166.511 319.902 169.73 319.709V235.344L169.752 234.991C169.767 234.752 169.782 234.517 169.797 234.284L169.823 233.888V233.887L169.823 233.886C169.958 231.82 170.077 229.982 170.117 227.974C170.252 226.941 170.412 225.922 170.572 224.904L170.572 224.904L170.573 224.903L170.573 224.902C170.785 223.553 170.997 222.207 171.149 220.837C172.996 211.467 176.697 202.491 182.124 194.564C187.333 186.952 194.011 180.323 201.647 175.186C201.962 174.944 202.292 174.727 202.631 174.517C210.679 169.307 219.711 165.727 229.098 164.066C230.299 163.896 231.476 163.727 232.654 163.517L234.428 163.203L236.25 163.155L239.855 162.985L241.678 162.84L241.895 162.816H319.976C319.992 161.879 320 160.941 320 160C320 150.042 319.09 140.296 317.349 130.842H244.516C244.094 130.852 243.658 130.849 243.226 130.846C242.652 130.842 242.085 130.838 241.565 130.866L238.968 131.011L233.783 131.277L231.186 131.398L228.614 131.809L223.501 132.576C216.01 133.922 208.663 136.083 201.648 139.035C195.906 141.438 190.382 144.341 185.173 147.728C179.649 151.308 174.463 155.413 169.73 159.977C164.496 164.993 159.763 170.59 155.682 176.598C147.876 188.057 142.473 201.072 139.78 214.644C139.579 216.142 139.348 217.635 139.117 219.128C138.818 221.059 138.52 222.988 138.288 224.926L137.764 235.353V318.467C145.031 319.478 152.455 320 160 320ZM316.221 194.725C303.35 252.888 258.827 299.153 201.647 314.526V234.844L201.696 234.603L201.744 234.094L201.841 233.062C201.889 232.393 201.889 231.691 201.865 230.998C201.924 230.625 201.992 230.256 202.06 229.887C202.232 228.954 202.403 228.021 202.438 227.038C203.478 221.869 205.494 216.926 208.518 212.458C211.574 208.039 215.558 204.144 220.05 201.241C224.565 198.33 229.517 196.387 234.726 195.475C235.396 195.403 236.049 195.306 236.694 195.161L237.678 194.943H238.71C239.379 194.943 240.081 194.919 240.75 194.846L241.782 194.725H316.221Z" fill="#256EFF"/>
</svg>